<svg width="1696" height="792" xmlns="http://www.w3.org/2000/svg">
    <g fill="none" fill-rule="evenodd">
        <path d="M927.952 592.665c-35.656.75-67.39 2.004-77.755 3.82-27.292 4.784-63.902 17.667-84.116 27.402-23.978 11.548-50.912 27.226-74.12 42.829-38.72 26.032-74.165 54.105-110.68 81.495-18.767 14.078-37.887 31.61-57.832 44.972h471.716c-20.114-59.782-47.597-142.351-67.213-200.518" fill="#680350" />
        <path d="M1411.394 408.006c-92.34-115.776-163.172-216.045-309.892-344.071C1064.5 31.647 1005.212-4.8 903.244 1.108c-72.306 4.19-146.05 87.065-146.05 87.065-36.425 38.887-77.88 84.59-110.914 122.667-54.561 62.888-288.366 279.395-388.41 368.254C195.117 634.83 76.63 735.394-.743 793.183H302.24c104.284-76.678 278.28-130.101 376.988-201.97 108.692-79.136 140.09-137.838 173.606-137.39 28.308.378 36.436 33.51 51.363 70.108 2.518 6.174 11.634 32.796 23.754 68.734 19.616 58.167 47.099 140.736 67.213 200.518h701.066c-80.09-108.765-264.377-359.524-284.837-385.177" fill="#e419b4" />
    </g>
</svg>